<?xml version="1.0" encoding="UTF-8" standalone="no"?>
<!-- Created with Inkscape (http://www.inkscape.org/) -->

<svg
   xmlns:dc="http://purl.org/dc/elements/1.1/"
   xmlns:cc="http://creativecommons.org/ns#"
   xmlns:rdf="http://www.w3.org/1999/02/22-rdf-syntax-ns#"
   xmlns:svg="http://www.w3.org/2000/svg"
   xmlns="http://www.w3.org/2000/svg"
   xmlns:xlink="http://www.w3.org/1999/xlink"
   xmlns:sodipodi="http://sodipodi.sourceforge.net/DTD/sodipodi-0.dtd"
   xmlns:inkscape="http://www.inkscape.org/namespaces/inkscape"
   width="1052.3622"
   height="744.09448"
   id="svg2"
   version="1.1"
   inkscape:version="0.48.4 r9939"
   sodipodi:docname="banc.svg"
   inkscape:export-filename="/home/philou/banc.png"
   inkscape:export-xdpi="90"
   inkscape:export-ydpi="90">
  <defs
     id="defs4">
    <linearGradient
       inkscape:collect="always"
       id="linearGradient4163">
      <stop
         style="stop-color:#a9f200;stop-opacity:1;"
         offset="0"
         id="stop4165" />
      <stop
         style="stop-color:#a9f200;stop-opacity:0;"
         offset="1"
         id="stop4167" />
    </linearGradient>
    <linearGradient
       inkscape:collect="always"
       id="linearGradient4151">
      <stop
         style="stop-color:#a9f200;stop-opacity:1;"
         offset="0"
         id="stop4153" />
      <stop
         style="stop-color:#a9f200;stop-opacity:0;"
         offset="1"
         id="stop4155" />
    </linearGradient>
    <linearGradient
       inkscape:collect="always"
       id="linearGradient4141">
      <stop
         style="stop-color:#a9f200;stop-opacity:1;"
         offset="0"
         id="stop4143" />
      <stop
         style="stop-color:#a9f200;stop-opacity:0;"
         offset="1"
         id="stop4145" />
    </linearGradient>
    <linearGradient
       inkscape:collect="always"
       id="linearGradient4131">
      <stop
         style="stop-color:#a9f200;stop-opacity:1;"
         offset="0"
         id="stop4133" />
      <stop
         style="stop-color:#a9f200;stop-opacity:0;"
         offset="1"
         id="stop4135" />
    </linearGradient>
    <linearGradient
       inkscape:collect="always"
       id="linearGradient4121">
      <stop
         style="stop-color:#a9f200;stop-opacity:1;"
         offset="0"
         id="stop4123" />
      <stop
         style="stop-color:#a9f200;stop-opacity:0;"
         offset="1"
         id="stop4125" />
    </linearGradient>
    <linearGradient
       inkscape:collect="always"
       id="linearGradient4111">
      <stop
         style="stop-color:#a9f200;stop-opacity:1;"
         offset="0"
         id="stop4113" />
      <stop
         style="stop-color:#a9f200;stop-opacity:0;"
         offset="1"
         id="stop4115" />
    </linearGradient>
    <linearGradient
       inkscape:collect="always"
       id="linearGradient4101">
      <stop
         style="stop-color:#a9f200;stop-opacity:1;"
         offset="0"
         id="stop4103" />
      <stop
         style="stop-color:#a9f200;stop-opacity:0;"
         offset="1"
         id="stop4105" />
    </linearGradient>
    <linearGradient
       inkscape:collect="always"
       id="linearGradient4091">
      <stop
         style="stop-color:#a9f200;stop-opacity:1;"
         offset="0"
         id="stop4093" />
      <stop
         style="stop-color:#a9f200;stop-opacity:0;"
         offset="1"
         id="stop4095" />
    </linearGradient>
    <linearGradient
       inkscape:collect="always"
       id="linearGradient4081">
      <stop
         style="stop-color:#a9f200;stop-opacity:1;"
         offset="0"
         id="stop4083" />
      <stop
         style="stop-color:#a9f200;stop-opacity:0;"
         offset="1"
         id="stop4085" />
    </linearGradient>
    <linearGradient
       inkscape:collect="always"
       id="linearGradient4067">
      <stop
         style="stop-color:#550000;stop-opacity:1;"
         offset="0"
         id="stop4069" />
      <stop
         style="stop-color:#550000;stop-opacity:0;"
         offset="1"
         id="stop4071" />
    </linearGradient>
    <linearGradient
       id="linearGradient4057">
      <stop
         style="stop-color:#550000;stop-opacity:1;"
         offset="0"
         id="stop4059" />
      <stop
         style="stop-color:#550000;stop-opacity:0;"
         offset="1"
         id="stop4061" />
    </linearGradient>
    <linearGradient
       id="linearGradient4041">
      <stop
         style="stop-color:#550000;stop-opacity:1;"
         offset="0"
         id="stop4043" />
      <stop
         style="stop-color:#550000;stop-opacity:0;"
         offset="1"
         id="stop4045" />
    </linearGradient>
    <radialGradient
       inkscape:collect="always"
       xlink:href="#linearGradient4057"
       id="radialGradient4063"
       cx="399.50044"
       cy="183.07091"
       fx="399.50044"
       fy="183.07091"
       r="294.10694"
       gradientTransform="matrix(1,0,0,0.57039211,0,78.648708)"
       gradientUnits="userSpaceOnUse" />
    <radialGradient
       inkscape:collect="always"
       xlink:href="#linearGradient4067"
       id="radialGradient4073"
       cx="547.13188"
       cy="371.67734"
       fx="547.13188"
       fy="371.67734"
       r="457.9617"
       gradientTransform="matrix(1,0,0,0.74137652,0,96.124488)"
       gradientUnits="userSpaceOnUse" />
    <radialGradient
       inkscape:collect="always"
       xlink:href="#linearGradient4081"
       id="radialGradient4087"
       cx="584.4094"
       cy="150.77791"
       fx="584.4094"
       fy="150.77791"
       r="23.603431"
       gradientTransform="matrix(1,0,0,1.2650442,0,-39.96281)"
       gradientUnits="userSpaceOnUse" />
    <radialGradient
       inkscape:collect="always"
       xlink:href="#linearGradient4091"
       id="radialGradient4097"
       cx="571.73464"
       cy="100.12143"
       fx="571.73464"
       fy="100.12143"
       r="16.007046"
       gradientTransform="matrix(1,0,0,1.7787268,0,-77.967237)"
       gradientUnits="userSpaceOnUse" />
    <radialGradient
       inkscape:collect="always"
       xlink:href="#linearGradient4101"
       id="radialGradient4107"
       cx="521.28974"
       cy="114.87058"
       fx="521.28974"
       fy="114.87058"
       r="15.976061"
       gradientTransform="matrix(1,0,0,1.4912643,0,-56.431815)"
       gradientUnits="userSpaceOnUse" />
    <radialGradient
       inkscape:collect="always"
       xlink:href="#linearGradient4111"
       id="radialGradient4117"
       cx="596.81026"
       cy="223.07245"
       fx="596.81026"
       fy="223.07245"
       r="26.926803"
       gradientTransform="matrix(1,0,0,0.91773206,0,18.35171)"
       gradientUnits="userSpaceOnUse" />
    <radialGradient
       inkscape:collect="always"
       xlink:href="#linearGradient4121"
       id="radialGradient4127"
       cx="536.00796"
       cy="192.65913"
       fx="536.00796"
       fy="192.65913"
       r="18.082366"
       gradientTransform="matrix(1,0,0,1.3761908,0,-72.476584)"
       gradientUnits="userSpaceOnUse" />
    <radialGradient
       inkscape:collect="always"
       xlink:href="#linearGradient4131"
       id="radialGradient4137"
       cx="444.53409"
       cy="218.85919"
       fx="444.53409"
       fy="218.85919"
       r="29.941689"
       gradientTransform="matrix(1,0,0,0.9379664,0,13.576624)"
       gradientUnits="userSpaceOnUse" />
    <radialGradient
       inkscape:collect="always"
       xlink:href="#linearGradient4141"
       id="radialGradient4147"
       cx="435.52477"
       cy="157.8102"
       fx="435.52477"
       fy="157.8102"
       r="22.756136"
       gradientTransform="matrix(1,0,0,1.2056452,0,-32.452913)"
       gradientUnits="userSpaceOnUse" />
    <radialGradient
       inkscape:collect="always"
       xlink:href="#linearGradient4151"
       id="radialGradient4157"
       cx="384.57413"
       cy="194.55698"
       fx="384.57413"
       fy="194.55698"
       r="27.019992"
       gradientTransform="matrix(1,0,0,1.5905375,0,-114.8932)"
       gradientUnits="userSpaceOnUse" />
    <radialGradient
       inkscape:collect="always"
       xlink:href="#linearGradient4163"
       id="radialGradient4169"
       cx="266.31377"
       cy="237.85814"
       fx="266.31377"
       fy="237.85814"
       r="19.483527"
       gradientTransform="matrix(1,0,0,1.0127108,0,-3.0233791)"
       gradientUnits="userSpaceOnUse" />
  </defs>
  <sodipodi:namedview
     id="base"
     pagecolor="#ffffff"
     bordercolor="#666666"
     borderopacity="1.0"
     inkscape:pageopacity="0.0"
     inkscape:pageshadow="2"
     inkscape:zoom="0.7"
     inkscape:cx="641.69187"
     inkscape:cy="391.6379"
     inkscape:document-units="px"
     inkscape:current-layer="layer1"
     showgrid="false"
     inkscape:window-width="1366"
     inkscape:window-height="718"
     inkscape:window-x="0"
     inkscape:window-y="0"
     inkscape:window-maximized="1" />
  <metadata
     id="metadata7">
    <rdf:RDF>
      <cc:Work
         rdf:about="">
        <dc:format>image/svg+xml</dc:format>
        <dc:type
           rdf:resource="http://purl.org/dc/dcmitype/StillImage" />
        <dc:title></dc:title>
      </cc:Work>
    </rdf:RDF>
  </metadata>
  <g
     inkscape:label="Calque 1"
     inkscape:groupmode="layer"
     id="layer1"
     transform="translate(0,-308.26767)">
    <rect
       style="fill:#ffffff;fill-opacity:1;stroke:#000000;stroke-width:1.68599999000000000;stroke-miterlimit:4;stroke-opacity:1;stroke-dasharray:none"
       id="rect4192"
       width="1060.6602"
       height="753.57379"
       x="-2.0203052"
       y="2.6425145"
       inkscape:export-filename="/home/philou/blanc.png"
       inkscape:export-xdpi="90"
       inkscape:export-ydpi="90"
       transform="translate(0,308.26767)" />
    <path
       style="fill:none;stroke:#000000;stroke-width:1px;stroke-linecap:butt;stroke-linejoin:miter;stroke-opacity:1"
       d="m 112.12693,652.1706 29.29443,-159.6041 11.11167,-71.21576 7.57615,-67.68022 c 0,0 -1.51523,-55.05331 0,-64.14468 1.51523,-9.09138 -4.54569,-73.23606 -4.54569,-73.23606 l -5.05076,-71.72083 -5.55584,-35.86042 -9.09137,-19.192897 -11.11168,-13.63706 -17.17259,-16.667517 -18.687826,-13.131983 7.576144,-14.647212 66.164992,3.030458 40.91118,1.515229 30.80965,-0.505077 78.28682,-0.505076 69.70053,-4.545686 106.57109,-7.576144 34.34519,-3.030458 36.87057,-3.535534 12.6269,-1.010152 12.12183,6.060915 24.74874,13.131983 19.1929,13.131983 7.07107,8.08122 10.10152,13.63706 15.65737,55.558388 11.11168,63.63961 9.09137,53.53809 10.6066,61.11423 2.52538,8.08122 18.18275,4.04061 28.28427,7.07106 23.23351,9.59645 29.7995,13.13199 23.23351,12.12183 28.28427,23.23351 22.22335,22.22335 25.25382,29.7995 17.17259,24.24366 38.89087,55.55839 27.7792,48.48733 18.68782,40.91117 11.11169,36.87057 -13.63707,-3.03046 -28.28427,-50.00255 -29.7995,-37.88072 -53.03301,-58.58885 -46.97209,-43.94163 -40.40611,-24.24366 -36.87056,-10.6066 -38.89088,-2.52539 -50.00255,5.05077 -38.3858,7.57614 -22.22335,8.5863 -37.37565,20.70813 -31.8198,23.73858 -19.69798,28.78935 -19.19289,27.27412 -7.07107,18.68782 -9.59645,25.25381 -6.56599,30.30458 -1.01015,37.37564 1.51522,41.41626 4.04061,25.75889 -16.66751,4.04061 -12.62691,-48.9924 -19.69797,-76.26652 -22.22336,-46.97209 -33.84011,-55.55839 -21.71828,-31.31473 -25.25381,-27.27412 -21.21321,-13.63706 -33.84011,-19.1929 -19.1929,-10.6066 -24.24366,-4.54569 -11.11167,-0.50507 -47.98225,-7.57615 -4.04061,37.88072 -12.62691,73.23606 -17.17259,109.09648 -9.09137,65.15484 z"
       id="path3016"
       inkscape:connector-curvature="0"
       transform="translate(0,308.26767)" />
    <path
       style="fill:none;stroke:#000000;stroke-width:1px;stroke-linecap:butt;stroke-linejoin:miter;stroke-opacity:1"
       d="m 694.85868,311.24412 -25.50635,-2.02031 -30.17831,-0.63134 -23.48604,1.26269 -249.97369,18.88218 -187.5,22.85714 -8.57143,-130.35714 -11.07143,-130.714287 -20,-30.714286 -42.500001,-28.392858 -0.535715,2.857143"
       id="path3018"
       inkscape:connector-curvature="0"
       transform="translate(0,308.26767)" />
    <path
       style="fill:none;stroke:#000000;stroke-width:1.10504532px;stroke-linecap:butt;stroke-linejoin:miter;stroke-opacity:1;display:inline"
       d="m 232.07075,609.5869 12.5083,-37.60769 1.28638,-3.46045 c 2.64157,-4.84551 4.78115,-9.63871 8.1178,-5.72807 l 3.7628,2.81475 3.09869,1.05551 c 1.91008,0.30792 3.025,-2.22825 4.53741,-3.34248 l 6.08686,-8.09254 5.09075,-7.56479 5.31213,-9.67588 3.76271,-9.49996 1.99205,-5.27775 1.88136,-5.62958 -0.22132,-2.1111 -3.32008,8.79621 c -2.6356,3.16249 -4.54562,2.79317 -6.58483,3.69447 -3.32835,1.76293 -6.78531,2.89334 -9.79422,2.81479 -6.63047,1.06851 -6.10251,0.72368 -8.13416,1.58332 l -6.14212,3.16666 -4.42672,4.22218 c -1.97194,3.56584 -1.17231,6.58091 -1.66005,9.85182 l 0.9058,7.03375 -4.919,7.27068 -2.89544,5.971 -2.37932,4.17109 -2.46501,10.87402 -5.83744,24.76222 z"
       id="path3038"
       inkscape:connector-curvature="0"
       sodipodi:nodetypes="cccccccccccccccccccccccccccc" />
    <g
       id="g3102"
       transform="matrix(0.75595148,0,0,1.1703078,161.03747,-80.383139)">
      <path
         sodipodi:nodetypes="ccccccccccscccsccccssscccccccccc"
         inkscape:connector-curvature="0"
         id="path3044-9"
         d="m 518.35854,499.21328 0.31483,-5.17574 -0.27111,-0.13183 1.72172,0.47688 c 0.45503,-2.87018 1.11223,-5.22978 2.16112,-7.35031 l 5.19696,-5.06973 5.89082,-4.33447 -3.5345,-9.43377 4.71268,-7.90399 3.06321,-6.37419 c 0,0 10.36782,-5.86425 11.54597,-6.37419 1.1782,-0.50993 6.59773,-3.56954 6.59773,-3.56954 l 7.54023,-2.29471 11.78162,-1.78478 c 0,0 6.83333,-2.29469 8.24711,-2.80463 1.41378,-0.50992 9.4253,-4.33443 9.4253,-4.33443 l 3.53448,-2.80465 5.89082,-9.68877 1.88508,-7.39406 c 0,0 -0.7069,10.96359 -1.41383,12.49339 -0.70688,1.52983 -3.53447,5.86427 -4.47701,7.64907 -0.9425,1.78476 -7.30459,6.88408 -7.77586,11.72845 -0.47128,4.84442 -20.26439,28.81136 -20.26439,28.81136 l -8.0115,9.43375 -10.13217,5.09935 -11.31035,-2.29471 -5.99798,-0.55132 -2.11532,0.0576 c -2.9227,3.4625 -7.12598,4.4959 -8.7184,9.72996 -1.02147,5.21871 -4.40193,-3.68105 -4.16626,0.31346 -1.25685,-2.07354 -0.65743,6.19207 -1.321,3.87662 z"
         style="fill:none;stroke:#000000;stroke-width:2.10549092;stroke-linecap:butt;stroke-linejoin:miter;stroke-miterlimit:4;stroke-opacity:1;stroke-dasharray:none;display:inline" />
      <path
         sodipodi:nodetypes="cccccccccccccccccccccccccccscccccccc"
         inkscape:connector-curvature="0"
         id="path3042-7"
         d="m 513.14118,479.30374 c -0.42151,-20.29414 2.25431,-19.51474 2.25431,-19.51474 l 2.42288,-4.70203 0.80826,-3.96314 1.99957,-2.84254 3.66475,-4.93197 1.60958,-1.55182 1.32143,0.59053 2.18796,-0.42344 4.3964,0.184 4.76896,-1.0119 3.50225,-2.02365 3.8003,-4.1395 5.3651,-8.18699 2.68256,-5.15125 2.30997,-4.3234 6.11025,-15.178 3.42773,-9.56674 2.23549,-4.78338 1.19222,-7.91095 0,-3.12758 -0.14904,-4.96735 -0.29805,2.39167 -1.63932,10.48661 -5.21609,7.91098 -7.89865,5.1513 -9.38895,5.33524 c 0,0 -5.81219,3.86355 -6.40832,3.86355 -0.59613,0 -9.23993,6.80706 -9.23993,6.80706 l -4.32189,6.07122 -2.23547,11.40652 0,7.72697 -4.02382,5.88722 -5.2161,11.03862 -1.63934,6.0711 z"
         style="fill:none;stroke:#000000;stroke-width:1.31135893px;stroke-linecap:butt;stroke-linejoin:miter;stroke-opacity:1;display:inline" />
      <path
         sodipodi:nodetypes="cccccccccccccccccccccccccccccc"
         inkscape:connector-curvature="0"
         id="path3038-9-0"
         d="m 505.09636,471.05404 -2.24305,-13.48909 -0.91197,-4.28053 c -0.93529,-1.55185 -0.46789,-2.09302 -3.00327,-4.29151 -1.31923,-2.07019 5.08031,8.82495 -3.39536,-4.03939 l -3.04623,2.39702 -4.56136,3.03646 -3.75648,1.13864 c -2.3155,0.33215 -3.66698,-2.40384 -5.50049,-3.6058 l -7.37872,-8.72976 -6.17131,-8.16044 -6.43961,-10.43783 -4.56141,-10.24803 -2.41484,-5.69333 -2.2807,-6.07294 0.2683,-2.27732 4.02479,9.48894 c 3.19503,3.41148 5.51045,3.01306 7.98243,3.98535 4.03484,1.90175 8.22553,3.12118 11.87303,3.03642 8.03787,1.15266 7.39782,0.78067 9.86067,1.708 l 7.44581,3.41604 5.36635,4.55464 c 2.39041,3.84662 1.4211,7.09911 2.01238,10.6276 l -0.31548,7.94887 5.18046,7.48195 3.50997,6.44123 3.40019,4.73149 -0.66666,0.68484 c 3.34301,12.46052 6.90001,25.08633 10.21548,37.52561 z"
         style="fill:none;stroke:#000000;stroke-width:1.26367581px;stroke-linecap:butt;stroke-linejoin:miter;stroke-opacity:1;display:inline" />
      <path
         sodipodi:nodetypes="cccccccccccccccccccccccccccscccccccc"
         inkscape:connector-curvature="0"
         id="path3042-7-0"
         d="m 533.15925,534.30789 c 0.47371,-16.82551 -2.36407,-2.13281 -2.36407,-2.13281 l -2.51212,-4.42339 -3.01458,-3.6608 -1.0886,-1.90665 -5.06614,-4.61403 -0.3344,-1.1366 -1.80092,0.56463 -4.3544,1.44898 -4.94053,0.15256 -5.35924,-0.83897 -3.93569,-1.67774 -4.27062,-3.43201 -6.02915,-6.78766 -3.01457,-4.27083 -2.59586,-3.58445 -6.86652,-12.5838 -3.85197,-7.93161 -2.51213,-3.9658 -1.33981,-6.55885 0,-2.59302 0.16749,-4.11834 0.33494,1.98292 1.84223,8.69426 5.86165,6.55883 8.87623,4.27086 10.55099,4.42333 c 0,0 6.53158,3.20322 7.20149,3.20322 0.66991,0 10.38352,5.64358 10.38352,5.64358 l 4.85679,5.03355 2.51216,9.45694 0,6.4063 4.52184,4.88098 5.86165,9.15192 1.84223,5.03341 z"
         style="fill:none;stroke:#000000;stroke-width:1.26578033px;stroke-linecap:butt;stroke-linejoin:miter;stroke-opacity:1;display:inline" />
      <path
         sodipodi:nodetypes="ccccccccccccccccccccccccccc"
         inkscape:connector-curvature="0"
         id="path3038-9-0-3"
         d="m 530.05187,550.27441 3.21177,-3.91059 c 1.55556,-1.54642 2.28649,-3.10052 6.50337,-5.29129 l 6.28569,-3.65028 4.06504,1.92945 7.58656,3.02577 6.24781,1.13466 c 3.85119,0.33098 6.09899,-2.39541 9.14854,-3.59312 l 12.27243,-8.69913 10.26423,-8.13182 10.71049,-10.40114 7.5866,-10.21204 4.01643,-5.67338 3.79329,-6.05158 -0.44624,-2.26935 -6.69407,9.45563 c -5.31407,3.3995 -9.16515,3.00251 -13.27654,3.97136 -6.71082,1.89508 -13.6809,3.11024 -19.7475,3.02576 -13.36868,1.14862 -12.30419,0.77794 -16.4004,1.70202 l -12.38403,3.40403 -8.92541,4.53866 c -3.9758,3.83309 -2.3636,7.0742 -3.34704,10.59028 l 2.1413,8.36006 -9.37136,6.82467 -6.69933,6.61053 -3.62895,5.61634 c -13.81195,28.4306 -11.94915,24.0478 7.08732,-2.3055 z"
         style="fill:none;stroke:#000000;stroke-width:1.62684679px;stroke-linecap:butt;stroke-linejoin:miter;stroke-opacity:1;display:inline" />
    </g>
    <g
       id="g3094"
       transform="matrix(0.79282491,0,0,1.031121,123.72021,-20.287485)">
      <path
         sodipodi:nodetypes="ccccccccccscccsccccssscccccccccc"
         inkscape:connector-curvature="0"
         id="path3044"
         d="m 358.43733,524.3312 -0.57714,0.18621 -2.05573,-9.31342 -0.87612,-9.78903 c 0.4003,-2.80483 0.97836,-5.11072 1.901,-7.18296 l 4.57151,-4.95433 5.18181,-4.23579 -3.10915,-9.21901 4.14542,-7.72405 2.69458,-6.22907 c 0,0 9.12001,-5.73076 10.1564,-6.22909 1.03638,-0.49831 5.80362,-3.48826 5.80362,-3.48826 l 6.63266,-2.24247 10.36362,-1.74414 c 0,0 6.01085,-2.24247 7.25458,-2.74079 1.24362,-0.49834 8.29086,-4.23577 8.29086,-4.23577 l 3.10904,-2.7408 5.18181,-9.46818 1.65819,-7.22574 c 0,0 -0.62181,10.71402 -1.24361,12.20899 -0.62181,1.49497 -3.10905,5.73073 -3.9382,7.47488 -0.82904,1.74414 -6.42543,6.72741 -6.84001,11.46148 -0.41446,4.73411 -17.82532,28.15543 -17.82532,28.15543 l -7.04735,9.219 -8.91266,4.98328 -9.94905,-2.24248 -7.25458,-3.98658 -1.03627,0.49832 c -2.57105,3.38369 -5.07555,5.86838 -6.47632,10.98328 -0.89857,5.09992 1.60731,8.44679 1.81454,12.35033 l 1.46098,14.44517 z"
         style="fill:none;stroke:#000000;stroke-width:1.95211732;stroke-linecap:butt;stroke-linejoin:miter;stroke-miterlimit:4;stroke-opacity:1;stroke-dasharray:none;display:inline" />
      <path
         sodipodi:nodetypes="cccccccccccccccccccccccccccscccccccc"
         inkscape:connector-curvature="0"
         id="path3042"
         d="m 360.16322,553.41615 c -2.69181,-11.14574 -2.50818,-10.31334 -1.84712,-12.12132 l -0.82351,-6.14253 -2.44602,-4.72618 -3.33872,-5.97183 -3.81432,-4.70546 -2.62734,-2.24378 -1.75041,0.0302 -2.75261,0.0556 -5.52927,0.18098 -5.99772,-0.99514 -4.40458,-1.99015 -4.77944,-4.07099 -6.74756,-8.05143 -3.37372,-5.06598 -2.90515,-4.25184 -7.6847,-14.92673 -4.31087,-9.40835 -2.81143,-4.7042 -1.49943,-7.77997 0,-3.07581 0.18743,-4.88512 0.37485,2.35209 2.06172,10.31302 6.56002,7.77999 9.93385,5.06602 11.80814,5.24692 c 0,0 7.30972,3.7996 8.05944,3.7996 0.74972,0 11.62071,6.69435 11.62071,6.69435 l 5.43544,5.97071 2.81144,11.21769 0,7.59906 5.06058,5.78973 6.56013,10.85589 2.06171,5.97058 c 1.99426,7.6587 0.37901,12.6199 -3.09154,16.1945 z"
         style="fill:none;stroke:#000000;stroke-width:1.45840454px;stroke-linecap:butt;stroke-linejoin:miter;stroke-opacity:1;display:inline" />
      <path
         sodipodi:nodetypes="cccccccccccccccccccccccccccccc"
         inkscape:connector-curvature="0"
         id="path3038-9"
         d="m 329.96103,616.92546 c 7.80455,-17.47951 16.86009,-30.80112 26.31857,-52.43818 l 2.54756,-4.08883 c 1.61226,-1.94235 0.48975,-2.14579 4.86014,-4.89755 l 7.78164,-7.47808 4.28174,5.71776 7.86281,3.80057 6.47527,1.42519 c 3.9915,0.41573 6.32113,-3.00879 9.48175,-4.51318 l 12.71926,-10.92664 10.63809,-10.21406 11.10045,-13.06449 7.8628,-12.82696 4.16274,-7.12608 3.93143,-7.60117 -0.46251,-2.85044 -6.93778,11.87683 c -5.50763,4.26999 -9.4989,3.77133 -13.76003,4.98826 -6.95524,2.38037 -14.17909,3.90666 -20.46659,3.80058 -13.85547,1.44272 -12.75219,0.97713 -16.99767,2.13784 l -12.83497,4.27563 -9.25033,5.70087 c -4.12067,4.8146 -2.4497,8.88562 -3.46893,13.30204 l 3.93624,10.74182 -12.32242,8.57219 -6.05046,8.06221 -3.76112,7.0545 c -1.71703,4.81495 -2.28955,7.0584 -7.49394,15.80194 l -13.40911,32.24883 z"
         style="fill:none;stroke:#000000;stroke-width:1.85617423px;stroke-linecap:butt;stroke-linejoin:miter;stroke-opacity:1;display:inline" />
      <path
         inkscape:connector-curvature="0"
         id="path3946"
         d="m 361.42342,551.18155 c 0,-0.0319 0.59832,-3.18287 1.3295,-7.00219 0.73129,-3.81934 1.30463,-7.04062 1.27412,-7.15839 -0.0299,-0.11781 0.11168,-0.40564 0.31569,-0.6397 l 0.37117,-0.42554 0.12733,0.31984 c 0.46155,1.15897 3.6064,9.82852 3.6064,9.94195 0,0.0772 -0.49206,0.48013 -1.09338,0.89558 -0.60131,0.41547 -2.18179,1.51388 -3.5121,2.4409 -1.33031,0.92703 -2.41873,1.65942 -2.41873,1.62755 z"
         style="fill:#550000;stroke:#000000;stroke-width:0.21954197;stroke-miterlimit:4;stroke-opacity:1;stroke-dasharray:none;display:inline" />
      <path
         inkscape:connector-curvature="0"
         id="path3948"
         d="m 355.61082,520.4558 c -0.14564,-0.27069 -0.59326,-0.86639 -0.99483,-1.32374 -0.40168,-0.45739 -0.74557,-0.88918 -0.76422,-0.95955 -0.0184,-0.0703 0.14057,-0.15711 0.35402,-0.19278 0.24223,-0.0406 0.48826,-0.21356 0.65508,-0.46077 l 0.26721,-0.39589 0.42057,1.86724 c 0.23129,1.02699 0.39938,1.88758 0.3737,1.91245 -0.0253,0.0247 -0.1659,-0.17627 -0.31153,-0.44696 l 0,0 z"
         style="fill:#550000;stroke:#000000;stroke-width:0.21954197;stroke-miterlimit:4;stroke-opacity:1;stroke-dasharray:none;display:inline" />
      <path
         inkscape:connector-curvature="0"
         id="path3954"
         d="m 361.74877,550.42939 c 0,-0.0263 0.50254,-2.69443 1.11674,-5.9293 0.77781,-4.09618 1.22601,-6.14821 1.47664,-6.75991 l 0.35989,-0.87834 0.19342,0.43055 c 0.8059,1.7936 3.36865,8.80153 3.27321,8.95066 -0.27032,0.42227 -6.4199,4.43232 -6.4199,4.18634 z"
         style="fill:#000000;stroke:#000000;stroke-width:0.21954197;stroke-miterlimit:4;stroke-opacity:1;stroke-dasharray:none;display:inline" />
    </g>
    <path
       style="opacity:1;fill:none;stroke:#000000;stroke-width:1px;stroke-linecap:butt;stroke-linejoin:miter;stroke-opacity:1;display:inline"
       d="m 668.41478,719.73507 9.46429,36.60714 4.46428,21.07143 12.78608,110.78804 3.59867,1.07328"
       id="path3117"
       inkscape:connector-curvature="0" />
    <path
       style="opacity:1;fill:none;stroke:#000000;stroke-width:1px;stroke-linecap:butt;stroke-linejoin:miter;stroke-opacity:1;display:inline"
       d="m 699.48619,718.66364 -0.17857,40.53571 1.60714,19.64286 7.42894,108.28804 -9.61562,1.43042"
       id="path3117-6"
       inkscape:connector-curvature="0"
       sodipodi:nodetypes="ccccc" />
    <path
       sodipodi:type="arc"
       style="fill:none;stroke:#000000;stroke-width:1.68599999;stroke-miterlimit:4;stroke-opacity:1;stroke-dasharray:none"
       id="path3912"
       sodipodi:cx="452.54834"
       sodipodi:cy="435.99796"
       sodipodi:rx="36.36549"
       sodipodi:ry="18.182745"
       d="m 488.91383,435.99796 a 36.36549,18.182745 0 1 1 -72.73098,0 36.36549,18.182745 0 1 1 72.73098,0 z"
       transform="matrix(0.75828784,0,0,0.54435347,100.29506,498.34233)" />
    <path
       sodipodi:type="arc"
       style="fill:none;stroke:#000000;stroke-width:1.68599999;stroke-miterlimit:4;stroke-opacity:1;stroke-dasharray:none"
       id="path3912-6"
       sodipodi:cx="452.54834"
       sodipodi:cy="435.99796"
       sodipodi:rx="36.36549"
       sodipodi:ry="18.182745"
       d="m 488.91383,435.99796 a 36.36549,18.182745 0 1 1 -72.73098,0 36.36549,18.182745 0 1 1 72.73098,0 z"
       transform="matrix(0.56788671,0,0,0.38577345,504.65883,519.50065)" />
    <path
       sodipodi:type="arc"
       style="fill:none;stroke:#000000;stroke-width:1.68599999;stroke-miterlimit:4;stroke-opacity:1;stroke-dasharray:none"
       id="path3912-8"
       sodipodi:cx="452.54834"
       sodipodi:cy="435.99796"
       sodipodi:rx="36.36549"
       sodipodi:ry="18.182745"
       d="m 488.91383,435.99796 a 36.36549,18.182745 0 1 1 -72.73098,0 36.36549,18.182745 0 1 1 72.73098,0 z"
       transform="matrix(0.39127282,0,0,0.22699012,257.8008,686.71465)" />
    <path
       sodipodi:type="arc"
       style="fill:none;stroke:#000000;stroke-width:1.68599999;stroke-miterlimit:4;stroke-opacity:1;stroke-dasharray:none"
       id="path3912-8-3"
       sodipodi:cx="452.54834"
       sodipodi:cy="435.99796"
       sodipodi:rx="36.36549"
       sodipodi:ry="18.182745"
       d="m 488.91383,435.99796 a 36.36549,18.182745 0 1 1 -72.73098,0 36.36549,18.182745 0 1 1 72.73098,0 z"
       transform="matrix(0.29530137,0,0,0.2017139,689.13111,624.49898)" />
    <path
       sodipodi:type="arc"
       style="fill:none;stroke:#000000;stroke-width:1.68599999;stroke-miterlimit:4;stroke-opacity:1;stroke-dasharray:none"
       id="path3912-88"
       sodipodi:cx="452.54834"
       sodipodi:cy="435.99796"
       sodipodi:rx="36.36549"
       sodipodi:ry="18.182745"
       d="m 488.91383,435.99796 a 36.36549,18.182745 0 1 1 -72.73098,0 36.36549,18.182745 0 1 1 72.73098,0 z"
       transform="matrix(0.76308875,0,0,0.24839971,120.34578,596.06284)" />
    <path
       sodipodi:type="arc"
       style="fill:none;stroke:#000000;stroke-width:1.68599999;stroke-miterlimit:4;stroke-opacity:1;stroke-dasharray:none"
       id="path3912-7"
       sodipodi:cx="452.54834"
       sodipodi:cy="435.99796"
       sodipodi:rx="36.36549"
       sodipodi:ry="18.182745"
       d="m 488.91383,435.99796 a 36.36549,18.182745 0 1 1 -72.73098,0 36.36549,18.182745 0 1 1 72.73098,0 z"
       transform="matrix(0.76364248,0,0,0.2217294,349.39982,578.90169)" />
    <path
       sodipodi:type="arc"
       style="fill:none;stroke:#000000;stroke-width:1.68599999;stroke-miterlimit:4;stroke-opacity:1;stroke-dasharray:none"
       id="path3912-3"
       sodipodi:cx="452.54834"
       sodipodi:cy="435.99796"
       sodipodi:rx="36.36549"
       sodipodi:ry="18.182745"
       d="m 488.91383,435.99796 a 36.36549,18.182745 0 1 1 -72.73098,0 36.36549,18.182745 0 1 1 72.73098,0 z"
       transform="matrix(0.76308875,0,0,0.24839971,218.33058,569.79887)" />
    <path
       sodipodi:type="arc"
       style="fill:none;stroke:#000000;stroke-width:1.68599999;stroke-miterlimit:4;stroke-opacity:1;stroke-dasharray:none"
       id="path3912-36"
       sodipodi:cx="452.54834"
       sodipodi:cy="435.99796"
       sodipodi:rx="36.36549"
       sodipodi:ry="18.182745"
       d="m 488.91383,435.99796 a 36.36549,18.182745 0 1 1 -72.73098,0 36.36549,18.182745 0 1 1 72.73098,0 z"
       transform="matrix(0.22724978,0,0,0.14894406,403.74999,650.53698)" />
    <path
       sodipodi:type="arc"
       style="fill:none;stroke:#000000;stroke-width:1.68599999;stroke-miterlimit:4;stroke-opacity:1;stroke-dasharray:none"
       id="path3912-36-5"
       sodipodi:cx="452.54834"
       sodipodi:cy="435.99796"
       sodipodi:rx="36.36549"
       sodipodi:ry="18.182745"
       d="m 488.91383,435.99796 a 36.36549,18.182745 0 1 1 -72.73098,0 36.36549,18.182745 0 1 1 72.73098,0 z"
       transform="matrix(0.22724978,0,0,0.14894406,342.13069,770.24005)" />
    <path
       sodipodi:type="arc"
       style="fill:none;stroke:#000000;stroke-width:1.68599999;stroke-miterlimit:4;stroke-opacity:1;stroke-dasharray:none"
       id="path3912-36-8"
       sodipodi:cx="452.54834"
       sodipodi:cy="435.99796"
       sodipodi:rx="36.36549"
       sodipodi:ry="18.182745"
       d="m 488.91383,435.99796 a 36.36549,18.182745 0 1 1 -72.73098,0 36.36549,18.182745 0 1 1 72.73098,0 z"
       transform="matrix(0.22724978,0,0,0.14894406,534.05967,613.66641)" />
    <path
       sodipodi:type="arc"
       style="fill:none;stroke:#000000;stroke-width:1.68599999;stroke-miterlimit:4;stroke-opacity:1;stroke-dasharray:none"
       id="path3912-36-7"
       sodipodi:cx="452.54834"
       sodipodi:cy="435.99796"
       sodipodi:rx="36.36549"
       sodipodi:ry="18.182745"
       d="m 488.91383,435.99796 a 36.36549,18.182745 0 1 1 -72.73098,0 36.36549,18.182745 0 1 1 72.73098,0 z"
       transform="matrix(0.22724978,0,0,0.14894406,766.73541,692.12953)" />
    <path
       style="stroke:#000000;stroke-width:3.40623426000000018;stroke-miterlimit:4;stroke-opacity:1;stroke-dasharray:none;fill-opacity:1;fill:url(#radialGradient4063)"
       d="m 178.69966,334.47681 c -0.67772,-8.05596 -3.04609,-41.92133 -5.26304,-75.25636 -2.21696,-33.33503 -6.17152,-85.16989 -8.78792,-115.18857 L 159.89161,89.452461 150.0414,74.151618 C 141.51221,60.902782 137.76683,57.249214 122.11391,46.90868 107.24233,37.084308 104.87179,34.845842 108.74616,34.285703 c 2.59023,-0.374484 26.18034,0.267557 52.42246,1.426759 85.93896,3.79621 206.37665,-0.967462 358.33937,-14.173402 l 52.02736,-4.521308 14.59095,6.954111 c 22.75755,10.846358 42.91979,25.159419 51.05784,36.245676 10.70673,14.585469 20.72655,52.130261 33.22454,124.493851 5.73431,33.2018 12.91668,74.52417 15.96082,91.82748 l 5.53476,31.46053 -39.48084,-0.0141 c -59.37161,-0.021 -261.24393,16.14543 -376.41196,30.1441 -49.74965,6.04706 -91.71968,10.99467 -93.26674,10.99467 -2.03162,0 -3.15507,-4.06801 -4.04506,-14.64722 z m 219.65425,-55.07165 c 6.48031,-16.65744 13.41398,-31.94531 15.40816,-33.97309 3.50881,-3.5679 3.84719,-3.55186 10.48941,0.49754 3.775,2.30139 7.9663,4.18777 9.31401,4.19191 3.39651,0.0101 17.42479,-14.77077 27.79495,-29.28687 8.71529,-12.1996 21.27246,-38.33831 21.27246,-44.28026 0,-5.33281 -2.80867,-3.60029 -7.07107,4.36176 -4.71266,8.80312 -10.44657,11.97564 -26.62758,14.73282 -18.72039,3.18987 -26.83028,6.32431 -31.87492,12.31951 l -4.70826,5.59546 -1.36328,-9.09094 c -1.79591,-11.97605 0.29969,-21.68986 4.3444,-20.13776 15.06023,5.77914 19.2761,2.9025 31.22616,-21.30678 15.66062,-31.72639 18.24035,-38.70584 17.49449,-47.33166 l -0.69167,-7.99923 -2.8416,8.70595 c -3.38375,10.36693 -11.3689,17.63604 -22.73546,20.69674 -4.56478,1.22917 -11.28921,4.62032 -14.94319,7.5359 -7.08218,5.65101 -14.11755,20.71573 -12.11345,25.93834 0.66479,1.73239 -0.61271,5.70774 -2.83889,8.83411 -2.39733,3.36674 -4.15033,9.26381 -4.29963,14.4638 l -0.25203,8.7795 -1.56718,-10.76743 c -1.88522,-12.95255 -5.67618,-17.40265 -25.18156,-29.55981 -14.25378,-8.884 -17.39806,-12.61254 -20.51113,-24.32253 -1.55151,-5.83611 -1.63701,-5.73372 -2.30515,2.7607 -0.52914,6.72751 1.27205,13.71308 7.5877,29.42734 10.3157,25.66704 17.58039,35.01626 28.57502,36.77437 9.48739,1.5171 13.86767,8.06504 16.03592,23.97163 1.08341,7.94814 0.62343,11.1782 -2.15778,15.15229 -1.9441,2.77792 -8.18406,18.52646 -13.86657,34.99675 -8.60589,24.9435 -9.75072,29.83409 -6.85324,29.2761 2.41631,-0.46536 7.07661,-9.91855 15.26096,-30.95616 z m -158.57819,3.42255 c 8.02984,-24.49785 10.28657,-27.98716 16.09152,-24.88046 2.33166,1.24788 5.60953,1.74308 7.28414,1.10048 9.33694,-3.58293 33.56814,-53.36537 25.97516,-53.36537 -0.86756,0 -2.54766,2.57058 -3.73357,5.71239 -1.71812,4.55184 -4.1682,6.23289 -12.05968,8.27437 -21.99609,5.69027 -25.05578,8.2524 -25.05578,20.98131 0,3.82218 -2.23129,10.94163 -4.95843,15.82101 -2.72713,4.87936 -6.81825,16.84787 -9.09137,26.59665 -4.73559,20.30964 -4.64205,19.58892 -2.54226,19.58892 0.87488,0 4.5155,-8.92318 8.09027,-19.8293 z m 319.18287,-17.04127 c 9.87075,-21.01249 12.37479,-23.29486 20.98321,-19.12568 3.66635,1.77566 8.03878,2.48279 10.26338,1.65986 11.72542,-4.33751 43.00962,-52.97711 41.42635,-64.40829 -0.75373,-5.44205 -0.80137,-5.41789 -4.22686,2.14376 -3.93707,8.6909 -7.6949,10.57768 -29.41576,14.76943 -24.77266,4.7807 -33.05426,12.88644 -29.53529,28.90817 0.73939,3.36646 0.37715,6.43211 -0.84962,7.19031 -1.32655,0.81984 -2.13859,-1.02492 -2.13859,-4.85843 0,-3.39908 -0.74075,-6.18015 -1.64613,-6.18015 -2.84978,0 -8.4554,-13.98242 -8.4554,-21.09083 0,-7.77773 7.57366,-23.35589 11.35497,-23.35589 1.38827,0 4.8218,0.87357 7.63004,1.94127 4.31374,1.64008 5.97974,1.06126 10.73813,-3.73074 8.51401,-8.57418 29.10568,-53.95386 33.38826,-73.58073 2.951,-13.524174 -1.03795,-17.433491 -4.35343,-4.26653 -2.95354,11.72962 -11.61702,20.31129 -23.53427,23.31209 -17.27367,4.34956 -33.42185,25.48804 -29.97183,39.23405 1.45672,5.80398 -5.01804,16.66194 -7.55257,12.66545 -2.86439,-4.51657 -1.69245,-26.44013 1.91664,-35.85542 2.80101,-7.30715 4.67804,-9.28747 10.14608,-10.70438 5.57947,-1.44579 7.52563,-3.58452 11.55729,-12.7008 5.43289,-12.28472 14.09268,-44.926149 16.20144,-61.068096 1.75958,-13.469376 -2.13114,-14.511831 -4.14096,-1.109491 -1.21986,8.134669 -3.38856,11.540168 -15.11726,23.738585 -16.48912,17.149485 -18.26253,20.31408 -18.26253,32.589052 0,5.23701 -1.96735,14.91748 -4.37188,21.51215 l -4.3719,11.99031 -3.70768,-9.76258 c -2.03924,-5.36942 -3.70843,-14.01123 -3.70934,-19.20402 -0.002,-11.45956 -6.83586,-20.849209 -16.72376,-22.978231 -10.00708,-2.15468 -17.61977,-6.709924 -17.65399,-10.56369 -0.0396,-4.45132 -3.39262,-9.824906 -5.07865,-8.138897 -2.02616,2.026171 6.598,31.046958 13.92831,46.869588 8.09336,17.46964 11.96453,21.27627 17.88004,17.58197 5.36975,-3.35346 6.81469,-1.10756 8.62879,13.41192 0.75369,6.03247 3.11385,16.03562 5.24475,22.22923 2.13092,6.19361 3.8744,11.62174 3.8744,12.0625 0,0.44076 -6.31083,-3.54178 -14.02407,-8.85009 -14.256,-9.81111 -18.30081,-15.11414 -18.30081,-23.99365 0,-2.72563 -0.90914,-4.9557 -2.02031,-4.9557 -3.70578,0 -2.08275,13.19943 3.74183,30.43067 10.63682,31.46766 17.7345,41.4413 28.37955,39.87894 5.60855,-0.82317 6.3603,-0.12385 11.07984,10.30758 5.00995,11.07329 5.02373,11.25483 1.31267,17.30959 -2.06273,3.36542 -5.31789,11.57376 -7.23372,18.24076 -1.91582,6.66701 -3.91178,13.25826 -4.43546,14.64722 -0.52367,1.38896 0.0101,2.52538 1.18715,2.52538 1.1766,0 5.66263,-7.50039 9.96895,-16.66752 l 0,0 z"
       id="path4039"
       inkscape:connector-curvature="0"
       transform="translate(0,308.26767)" />
    <path
       style="fill:url(#radialGradient4073);stroke:#000000;stroke-width:3.40623426000000018;stroke-miterlimit:4;stroke-opacity:1;stroke-dasharray:none;fill-opacity:1"
       d="m 465.62862,707.05804 c -0.55516,-1.85375 -7.84664,-29.808 -16.20331,-62.12056 -17.35574,-67.10914 -24.56505,-84.80772 -54.8048,-134.54371 -36.97209,-60.80882 -54.32964,-80.91981 -86.13589,-99.79966 -41.7512,-24.78308 -53.98347,-30.50149 -70.30864,-32.86832 -47.67759,-6.91235 -62.90006,-8.72717 -65.34212,-7.79008 -1.77491,0.68111 -3.16874,6.3021 -3.99938,16.12858 -0.70124,8.29572 -5.80694,42.24347 -11.34599,75.43947 -10.73773,64.35219 -22.68204,141.30785 -26.69279,171.97821 l -2.4438,18.68782 -6.70726,0 c -5.04129,0 -6.70727,-0.87827 -6.70727,-3.53594 0,-1.94474 5.95742,-35.81011 13.23872,-75.25636 C 162.58034,386.99325 166.52539,338.54284 157.3752,214.77374 151.57701,136.34508 147.9843,110.22397 141.1196,96.585889 134.11311,82.66611 116.6371,63.274539 102.03621,53.218521 l -11.162912,-7.688195 3.017892,-5.83596 3.017893,-5.835961 20.630897,14.122849 c 17.90277,12.255312 21.87806,16.068755 30.06224,28.83836 l 9.43133,14.715513 3.17593,36.365493 c 4.88989,55.99095 10.85691,135.08513 13.60161,180.29243 1.36546,22.49028 3.04452,41.80049 3.73124,42.91162 0.80537,1.30314 24.51746,-0.82022 66.80153,-5.98192 146.79595,-17.91966 325.03413,-32.58615 401.93375,-33.07348 46.17884,-0.29267 48.11254,-0.14082 70.71068,5.55006 43.50355,10.95561 92.04973,34.31981 119.81391,57.66381 25.51787,21.45529 48.027,47.95194 82.96124,97.65789 30.87261,43.92689 52.00793,79.35421 66.5598,111.56854 9.20417,20.37577 18.68486,49.03444 16.83366,50.88562 -3.52888,3.52889 -10.22443,-4.22411 -22.58815,-26.15559 -16.37851,-29.05312 -33.88331,-51.83271 -71.9427,-93.62151 -72.1651,-79.23648 -109.47886,-103.28003 -167.3941,-107.86225 -11.91008,-0.94233 -28.74429,-0.88479 -38.3858,0.13112 -9.44492,0.99524 -21.71827,2.18957 -27.27411,2.65406 -5.55584,0.46446 -19.1929,2.74866 -30.30458,5.07599 -24.8862,5.21239 -61.49431,22.82135 -88.33065,42.48815 -16.31637,11.95732 -19.83133,15.83133 -37.83912,41.70425 -16.5101,23.72109 -21.37822,32.57061 -28.91913,52.57066 -4.98698,13.22651 -10.31588,30.41218 -11.842,38.19035 -3.20683,16.34441 -3.39417,85.9654 -0.28133,104.55079 1.07012,6.38922 1.85002,11.61676 1.7331,11.61676 -0.11698,0 -3.12357,0.83487 -6.68145,1.85524 -5.31559,1.5245 -6.64887,1.25435 -7.47826,-1.51523 l 0,6e-5 z M 453.33848,526.91087 c 0,-3.56392 -12.53779,-5.44292 -15.63723,-2.34349 -3.55107,3.55107 0.67656,6.62094 8.24877,5.9898 4.94694,-0.41234 7.38846,-1.61727 7.38846,-3.64631 z m -6.22616,-45.67301 c 1.75765,-0.67446 3.1957,-2.39548 3.1957,-3.82446 0,-3.50305 -4.64315,-5.05076 -15.15229,-5.05076 -4.81849,0 -10.19896,0.55182 -11.95659,1.2263 -3.81292,1.46315 -4.22553,6.10266 -0.67032,7.53721 3.65259,1.47386 20.83042,1.5519 24.5835,0.11173 l 0,-2e-5 z m 430.5733,-31.23299 c 1.99782,-3.23255 -0.0435,-4.31026 -8.1643,-4.31026 -4.03723,0 -7.82542,0.48499 -8.4182,1.07777 -2.48055,2.48055 2.06148,5.38721 8.4182,5.38721 3.75793,0 7.43186,-0.96963 8.1643,-2.15472 z M 469.03186,432.31334 c 3.53366,-3.53363 3.99703,-5.17733 2.24339,-7.95744 -6.48189,-10.27591 -44.40467,-11.09973 -54.32429,-1.1801 -4.31383,4.31384 -3.05227,7.08968 5.1931,11.42636 10.44015,5.49105 40.57918,4.01981 46.8878,-2.28882 l 0,0 z m 45.61902,-23.62011 c 2.15401,-2.15403 -2.86187,-5.02097 -8.78447,-5.02097 -7.9831,0 -10.7057,2.88106 -5.59833,5.92416 3.07858,1.8343 12.21931,1.26029 14.3828,-0.90319 l 0,0 z m 319.25962,-2.13939 c 0.41505,-0.37785 0.19698,-2.1401 -0.48447,-3.91613 -1.78351,-4.64776 -20.16261,-3.44129 -21.07825,1.38364 -0.4159,2.19153 0.99811,3.69906 4.02245,4.28844 4.4296,0.86326 15.92756,-0.28779 17.54027,-1.75595 z m -345.36647,-6.67421 c 6.53264,-1.82555 7.51503,-5.62264 1.91458,-7.40014 -7.61744,-2.41768 -45.13002,-1.65 -50.12997,1.02587 -4.86219,2.60217 -3.78013,5.09721 2.90831,6.70598 6.12027,1.47213 39.73271,1.22602 45.30708,-0.33171 l 0,0 z m 292.51032,-16.98117 c 3.2796,-3.27961 3.2796,-3.66011 0,-6.93971 -4.52613,-4.52613 -28.52138,-5.93913 -35.78179,-2.10708 -12.41302,6.55161 -1.6478,14.13983 18.68134,13.16815 9.52311,-0.45518 14.6762,-1.69712 17.10045,-4.12136 z M 591.85684,372.02804 c 4.4257,-4.4257 -5.79129,-7.1066 -27.29453,-7.16198 -21.22981,-0.0547 -29.40148,1.24113 -29.40148,4.66226 0,4.13098 9.9474,5.79951 31.73037,5.32231 13.73872,-0.30096 23.55369,-1.41064 24.96564,-2.82259 l 0,0 z m 53.41062,-1.69081 c 0,-1.11117 -3.86383,-2.29986 -8.5863,-2.64155 -6.81356,-0.49297 -8.58629,0.0523 -8.58629,2.64155 0,2.58914 1.77273,3.13452 8.58629,2.64155 4.72247,-0.3417 8.5863,-1.53038 8.5863,-2.64155 z m 68.46727,0.97922 c 3.45622,-0.0162 7.64772,-0.92615 9.31448,-2.0203 4.90976,-3.22306 -0.56187,-5.33682 -16.83509,-6.50357 -20.46154,-1.46706 -38.7233,0.66181 -38.7233,4.51419 0,3.51139 16.63899,6.09104 31.09162,4.82033 4.87756,-0.42885 11.69609,-0.79364 15.15229,-0.81065 z"
       id="path4065"
       inkscape:connector-curvature="0"
       transform="translate(0,308.26767)" />
    <path
       style="fill:#55f200;stroke:#000000;stroke-width:3.40623426000000018;stroke-miterlimit:4;stroke-opacity:1;stroke-dasharray:none;fill-opacity:1"
       d="m 695.96956,571.93838 c -0.65803,-4.20852 -3.88288,-30.83486 -7.16633,-59.16964 -3.85155,-33.23733 -8.09408,-59.76191 -11.95625,-74.75129 -3.29249,-12.77843 -5.83542,-23.37112 -5.65095,-23.53932 0.18447,-0.1682 6.47207,-0.95596 13.97246,-1.75059 l 13.63705,-1.44478 0.0101,25.99425 c 0.006,14.29684 1.79519,51.40299 3.97693,82.45811 2.18175,31.05512 3.76818,56.62531 3.52541,56.82264 -0.24277,0.19732 -2.40129,0.96037 -4.79672,1.69564 -3.81397,1.17069 -4.50402,0.38576 -5.55173,-6.31502 l 2e-5,0 z"
       id="path4075"
       inkscape:connector-curvature="0"
       transform="translate(0,308.26767)" />
    <path
       style="fill:#55f200;fill-opacity:1;stroke:#000000;stroke-width:3.40623426;stroke-miterlimit:4;stroke-opacity:1;stroke-dasharray:none"
       d=""
       id="path4077"
       inkscape:connector-curvature="0"
       transform="translate(0,308.26767)" />
    <path
       style="fill:url(#radialGradient4087);fill-opacity:1;stroke:#000000;stroke-width:3.40623426000000018;stroke-miterlimit:4;stroke-opacity:1;stroke-dasharray:none"
       d="m 566.85472,177.95919 c -4.66307,-0.70071 -5.25186,-1.37178 -3.284,-3.74291 1.37592,-1.65789 1.88449,-5.45549 1.19335,-8.91117 -2.7925,-13.96252 11.05558,-31.56628 28.53415,-36.27277 4.59914,-1.23842 8.90869,-3.13611 9.57676,-4.21708 2.92724,-4.73638 4.51194,-1.31628 2.59973,5.61074 -2.8979,10.49775 -19.60685,43.32898 -23.59793,46.36734 -3.34117,2.54359 -4.99794,2.67217 -15.02206,1.16585 z"
       id="path4079"
       inkscape:connector-curvature="0"
       transform="translate(0,308.26767)" />
    <path
       style="fill:url(#radialGradient4097);fill-opacity:1;stroke:#000000;stroke-width:3.40623426000000018;stroke-miterlimit:4;stroke-opacity:1;stroke-dasharray:none"
       d="m 557.43239,120.32447 c 0.11011,-15.00042 3.43313,-22.13262 16.16578,-34.696539 l 12.4404,-12.27555 -1.42813,7.071068 c -2.54905,12.620987 -10.86573,37.258441 -14.15108,41.921331 -1.83177,2.59984 -5.31578,4.54569 -8.13897,4.54569 -4.23206,0 -4.92933,-0.93663 -4.888,-6.566 z"
       id="path4089"
       inkscape:connector-curvature="0"
       transform="translate(0,308.26767)" />
    <path
       style="fill:url(#radialGradient4107);fill-opacity:1;stroke:#000000;stroke-width:3.40623426000000018;stroke-miterlimit:4;stroke-opacity:1;stroke-dasharray:none"
       d="m 517.0003,120.32447 c -4.2883,-9.16713 -8.45652,-19.31713 -9.26271,-22.55554 -1.29935,-5.219382 -1.02998,-5.719524 2.37211,-4.404203 2.11086,0.816103 6.14009,1.948775 8.95385,2.517048 10.95778,2.213059 15.00009,7.561675 16.09302,21.293615 0.8992,11.29797 0.51931,13.14708 -3.34486,16.28107 -2.3976,1.94454 -4.9567,3.53553 -5.68689,3.53553 -0.73019,0 -4.83623,-7.50038 -9.12452,-16.66752 z"
       id="path4099"
       inkscape:connector-curvature="0"
       transform="translate(0,308.26767)" />
    <path
       style="fill:url(#radialGradient4117);fill-opacity:1;stroke:#000000;stroke-width:3.40623426000000018;stroke-miterlimit:4;stroke-opacity:1;stroke-dasharray:none"
       d="m 580.22224,242.13666 c -6.96984,-4.24978 -10.23234,-13.89522 -7.87579,-23.28446 1.5862,-6.31993 12.26646,-11.89232 28.4743,-14.85638 6.667,-1.21924 14.16739,-2.80829 16.66751,-3.53122 2.50013,-0.72293 4.54569,-0.44019 4.54569,0.6283 0,5.27828 -30.03822,45.01035 -34.01181,44.98801 -0.73894,-0.004 -4.24889,-1.77906 -7.7999,-3.94425 z"
       id="path4109"
       inkscape:connector-curvature="0"
       transform="translate(0,308.26767)" />
    <path
       style="fill:url(#radialGradient4127);fill-opacity:1;stroke:#000000;stroke-width:1.20428574000000022;stroke-miterlimit:4;stroke-opacity:1;stroke-dasharray:none"
       d="m 540.22347,215.65064 c -4.77887,-2.91418 -11.88039,-16.48872 -17.7115,-33.85553 -3.73078,-11.11138 -4.93958,-15.74499 -3.20921,-12.30167 0.75689,1.50616 1.95504,2.40988 14.54256,10.969 10.42562,7.08909 13.62486,9.82532 15.98766,13.67386 2.07736,3.38363 3.6552,10.70886 3.6552,16.96958 0,3.28037 -0.14489,3.54921 -2.52424,4.68384 -3.33007,1.588 -8.0076,1.52743 -10.74047,-0.13908 z"
       id="path4119"
       inkscape:connector-curvature="0"
       transform="translate(0,308.26767)" />
    <path
       style="fill:url(#radialGradient4137);fill-opacity:1;stroke:#000000;stroke-width:1.20428574000000022;stroke-miterlimit:4;stroke-opacity:1;stroke-dasharray:none"
       d="m 428.46064,244.99463 c -4.65366,-2.41773 -5.74821,-3.36197 -7.61887,-6.57261 -1.03003,-1.76786 -2.10433,-3.375 -2.38732,-3.57143 -0.28299,-0.19643 -1.21592,-2.86383 -2.07318,-5.92757 -1.60865,-5.74915 -1.58109,-11.27326 0.078,-15.6243 1.06097,-2.7825 8.00626,-7.87647 14.17181,-10.3942 6.26896,-2.55997 7.32981,-2.79598 16.78572,-3.73437 7.13301,-0.70788 20.9345,-4.60562 24.52626,-6.92657 0.91801,-0.59321 1.77617,-0.97151 1.90702,-0.84066 0.51323,0.51322 -7.49054,16.36224 -11.1403,22.05996 -5.1917,8.10488 -13.75573,18.76939 -21.26408,26.47949 -6.80375,6.98657 -8.20926,7.53343 -12.98501,5.05226 z"
       id="path4129"
       inkscape:connector-curvature="0"
       transform="translate(0,308.26767)" />
    <path
       style="fill:url(#radialGradient4147);fill-opacity:1;stroke:#000000;stroke-width:1.20428574000000022;stroke-miterlimit:4;stroke-opacity:1;stroke-dasharray:none"
       d="m 422.7371,183.54523 c -2.62359,-0.96407 -5.52956,-2.6389 -8.45785,-4.87464 -0.1542,-0.11773 0.12258,-0.69956 0.61505,-1.29296 0.72249,-0.87054 0.66184,-2.03204 -0.31405,-6.01424 l -1.20947,-4.93533 2.47745,-6.68159 c 2.37608,-6.40822 2.69122,-6.8628 7.7021,-11.11041 6.44491,-5.4632 10.46334,-7.67128 16.00928,-8.79693 4.84217,-0.9828 9.80237,-3.28418 14.89917,-6.91276 1.90883,-1.35896 3.35342,-2.20516 3.21019,-1.88045 -0.14322,0.32471 -1.09468,2.19752 -2.11435,4.16181 -1.01967,1.96429 -2.24393,5.17857 -2.72057,7.14286 -0.90659,3.73615 -10.46272,22.83665 -16.17478,32.32969 -2.04154,3.39288 -4.52572,6.42393 -6.43277,7.84888 -3.54201,2.64659 -3.18422,2.59805 -7.4894,1.01607 l 0,0 z"
       id="path4139"
       inkscape:connector-curvature="0"
       transform="translate(0,308.26767)" />
    <path
       style="fill:url(#radialGradient4157);fill-opacity:1;stroke:#000000;stroke-width:1.20428574000000022;stroke-miterlimit:4;stroke-opacity:1;stroke-dasharray:none"
       d="m 408.95285,234.46995 c -0.25557,-1.8646 -0.46467,-5.08104 -0.46467,-7.14766 0,-4.26046 -3.65795,-13.87379 -7.42229,-19.50627 l -2.22057,-3.32258 -6.46491,-0.36037 c -8.44699,-0.47085 -11.11269,-2.16086 -16.3315,-10.35391 -5.9734,-9.37767 -9.76769,-17.67135 -15.8289,-34.59934 -2.50489,-6.99577 -2.72861,-8.73706 -0.67611,-5.26245 1.21583,2.05823 6.33797,5.59797 17.87285,12.35131 9.62169,5.63323 16.45903,10.98437 18.51269,14.48868 2.15354,3.67472 3.98731,11.84316 3.98731,17.76123 0,3.62015 0.34239,4.78654 2.1959,7.48052 5.54937,8.06573 9.58443,20.22717 8.77613,26.45073 -0.66869,5.1486 -1.40221,5.91401 -1.93593,2.02011 l 0,0 z"
       id="path4149"
       inkscape:connector-curvature="0"
       transform="translate(0,308.26767)" />
    <path
       style="fill:#a9f200;fill-opacity:1;stroke:#000000;stroke-width:1.20428574;stroke-miterlimit:4;stroke-opacity:1;stroke-dasharray:none"
       d=""
       id="path4159"
       inkscape:connector-curvature="0"
       transform="translate(0,308.26767)" />
    <path
       style="fill:url(#radialGradient4169);fill-opacity:1;stroke:#000000;stroke-width:1.20428574000000022;stroke-miterlimit:4;stroke-opacity:1;stroke-dasharray:none"
       d="m 255.37022,254.35543 -3.75351,-2.62546 -2.13935,1.58169 c -2.62281,1.93913 -2.72043,1.36417 -0.30586,-1.80149 1.72652,-2.26359 1.80543,-2.72595 1.35242,-7.92457 -0.59985,-6.88377 0.33416,-10.58468 3.40743,-13.50155 3.79031,-3.59741 11.28453,-6.63125 16.43571,-6.65356 1.07669,-0.005 4.85347,-1.09831 8.39285,-2.43034 3.53938,-1.33203 6.43524,-2.35173 6.43524,-2.26601 0,0.56563 -4.07269,10.00733 -5.74959,13.32924 -2.50278,4.95798 -11.05661,17.78468 -14.60084,21.89435 -1.5918,1.84576 -3.22619,3.03325 -4.16951,3.02944 -0.85332,-0.003 -3.24057,-1.18774 -5.30499,-2.63174 l 0,0 z"
       id="path4161"
       inkscape:connector-curvature="0"
       transform="translate(0,308.26767)" />
    <path
       style="fill:#4b1d00;fill-opacity:1;stroke:#000000;stroke-width:4.81714295999999997;stroke-miterlimit:4;stroke-opacity:1;stroke-dasharray:none"
       d="m 698.71079,565.57578 c -0.87807,-5.26772 -4.23166,-30.1491 -7.45242,-55.29196 -3.22076,-25.14285 -8.14438,-56.23072 -10.94137,-69.08415 -5.07534,-23.32348 -5.07368,-23.37303 0.83961,-24.96099 15.77929,-4.23738 15.92506,-3.97705 15.92506,28.44129 0,16.56073 1.37074,52.04714 3.04608,78.85868 2.85313,45.66028 2.23647,63.95476 -1.41696,42.03713 l 0,0 z"
       id="path4171"
       inkscape:connector-curvature="0"
       transform="translate(0,308.26767)" />
    <path
       style="fill:none;stroke:#000000;stroke-width:1px;stroke-linecap:butt;stroke-linejoin:miter;stroke-opacity:1"
       d="m 155.56349,491.05127 10.10153,-33.33503 11.11168,-20.70813 12.12183,-15.65737 17.17259,-14.64721 18.68782,-10.10152 15.65737,-7.57615 18.18274,-2.52538 1.01015,-0.50508"
       id="path4194"
       inkscape:connector-curvature="0"
       transform="translate(0,308.26767)" />
    <path
       style="fill:#2b0000;fill-opacity:1;stroke:#000000;stroke-width:0.85155857000000001;stroke-miterlimit:4;stroke-opacity:1;stroke-dasharray:none"
       d="m 155.54805,486.40462 c 0.16938,-1.38896 3.24168,-19.5717 6.82733,-40.4061 5.33645,-31.00742 6.8499,-40.95079 8.34105,-54.80077 1.13912,-10.58028 2.09996,-17.45828 2.56437,-18.35651 0.73978,-1.43084 0.75683,-1.43513 4.36695,-1.09855 1.99335,0.18584 12.18404,1.6793 22.64598,3.31879 10.46194,1.63949 21.59887,3.11917 24.74874,3.28817 9.60493,0.51534 27.85049,4.333 32.09453,6.71539 1.28242,0.71989 0.77855,0.84001 -8.94237,2.13167 l -8.33376,1.10734 -8.5863,4.27743 c -4.72246,2.35258 -12.44721,6.34794 -17.16611,8.87858 -7.88824,4.23029 -9.27385,5.19631 -17.19007,11.98469 -7.59938,6.51667 -9.32481,8.30077 -14.69645,15.19612 -5.00735,6.42772 -7.06343,9.63763 -11.59927,18.10845 l -5.51309,10.29588 -4.93475,15.9424 c -2.71411,8.76832 -4.79616,14.80598 -4.62678,13.41702 z"
       id="path4196"
       inkscape:connector-curvature="0"
       transform="translate(0,308.26767)"
       inkscape:export-filename="/home/philou/banc.png"
       inkscape:export-xdpi="90"
       inkscape:export-ydpi="90" />
    <path
       style="fill:none;stroke:#000000;stroke-width:1px;stroke-linecap:butt;stroke-linejoin:miter;stroke-opacity:1"
       d="m 131.31983,652.1706 14.14214,-15.15229 23.23351,-13.13198 23.2335,-25.25381 45.45687,-23.23351 59.599,-16.16244 29.29442,-14.14214 37.37565,-16.16244 27.27412,-17.17259 3.35667,0.19222 21.42858,34.28572 4.28571,11.78571 0.71429,-0.71428"
       id="path4217"
       inkscape:connector-curvature="0"
       transform="translate(0,308.26767)" />
    <path
       style="fill:none;stroke:#000000;stroke-width:1px;stroke-linecap:butt;stroke-linejoin:miter;stroke-opacity:1"
       d="m 466.07143,710.8802 c 0,0 -19.64286,-23.21429 -21.07143,-25.35715 -1.42857,-2.14285 -31.42857,-31.42857 -31.42857,-31.42857 L 375,635.52305 340.35714,624.09448 295.71429,619.80877 250,625.52305 215.71429,624.09448 127.14286,651.23734 130,652.66591"
       id="path4219"
       inkscape:connector-curvature="0"
       transform="translate(0,308.26767)" />
    <path
       style="fill:#4d4d4d;stroke:#000000;stroke-width:1px;stroke-linecap:butt;stroke-linejoin:miter;stroke-opacity:1"
       d="m 481.42857,702.66591 92.85714,-41.42857 68.57143,-17.14286 102.85715,-7.14285 98.57142,-7.14286 104.28572,-2.85714 54.28567,12.85714 -67.14281,-51.42857 -57.14286,-21.42857 -95.71429,-21.42858 -68.57143,-15.71428 -27.14285,-4.28572 -151.42857,-45.71428"
       id="path4221"
       inkscape:connector-curvature="0"
       transform="translate(0,308.26767)" />
    <path
       style="fill:#4d4d4d;fill-opacity:1;stroke:#000000;stroke-width:2.40857147999999999;stroke-miterlimit:4;stroke-opacity:0.67826086;stroke-dasharray:none"
       d="m 445.69774,684.72679 c -20.84209,-23.63588 -29.56377,-30.69312 -50.86301,-41.15633 -28.87762,-14.18606 -49.5452,-20.37175 -76.61193,-22.92949 -21.04806,-1.98899 -23.5425,-1.94778 -43.57144,0.71988 -15.8087,2.10556 -26.10441,2.65198 -40.23442,2.13535 l -18.98922,-0.69429 -36.96245,11.31146 c -20.32935,6.22131 -37.44983,11.31147 -38.04552,11.31147 -3.06453,0 7.27589,-8.19667 17.60433,-13.95464 9.0854,-5.06498 14.36417,-9.39534 23.20506,-19.03591 10.95678,-11.94784 12.40131,-12.97572 33.91084,-24.12982 20.67941,-10.72364 24.79953,-12.27762 51.79494,-19.53547 23.61871,-6.35001 33.36105,-9.77935 50.04266,-17.6152 11.39286,-5.35156 26.5,-12.16694 33.57143,-15.14529 10.81057,-4.5532 23.06346,-11.37047 38.71902,-21.54251 2.8495,-1.85144 3.39532,-1.31533 10.56638,10.37826 11.44244,18.65878 24.95353,47.08596 31.3168,65.8902 6.16143,18.20777 29.14046,105.46239 28.37719,107.75221 -0.25606,0.7682 -6.47986,-5.42375 -13.83066,-13.75988 l 0,0 z"
       id="path4223"
       inkscape:connector-curvature="0"
       transform="translate(0,308.26767)" />
    <path
       style="fill:#4d4d4d;fill-opacity:1;stroke:#000000;stroke-width:2.40899999999999981;stroke-miterlimit:4;stroke-opacity:1;stroke-dasharray:none;opacity:0"
       d="m 480.3749,691.85341 c -0.68995,-3.14286 -1.25367,-25.32143 -1.25271,-49.28572 0.002,-37.66592 0.36634,-45.12041 2.6917,-55 3.26724,-13.88125 13.60712,-42.32874 19.99098,-55 5.1629,-10.24778 29.92659,-46.45265 30.5316,-44.63763 0.30942,0.92828 -48.50754,203.38162 -50.20483,208.20906 -0.27625,0.78572 -1.06678,-1.14285 -1.75674,-4.28571 l 0,0 z"
       id="path4225"
       inkscape:connector-curvature="0"
       transform="translate(0,308.26767)" />
    <path
       style="opacity:1;fill:#4d4d4d;fill-opacity:1;stroke:#000000;stroke-width:3.44142841999999982;stroke-miterlimit:4;stroke-opacity:0.54347825;stroke-dasharray:none"
       d="m 480.51776,691.7423 c -0.68995,-3.14286 -1.25446,-25.32143 -1.25446,-49.28571 0,-37.40484 0.37559,-45.1889 2.65381,-55 3.39906,-14.63797 15.50866,-47.74071 21.09025,-57.65219 5.22454,-9.27745 28.76374,-43.17335 29.48269,-42.45439 0.40974,0.40973 -48.46985,203.45808 -50.2348,208.67801 -0.26567,0.78571 -1.04754,-1.14286 -1.73749,-4.28572 z"
       id="path4227"
       inkscape:connector-curvature="0"
       transform="translate(0,308.26767)" />
  </g>
</svg>
